<svg width="9" height="14" xmlns="http://www.w3.org/2000/svg" xmlns:xlink="http://www.w3.org/1999/xlink"><defs><path d="M7.5 11.727c-.386 0-.623-.155-.935-.487L1.178 5.494a.917.917 0 0 1 0-1.238.785.785 0 0 1 1.16 0L7.5 9.763l5.162-5.507a.785.785 0 0 1 1.16 0c.32.342.32.896 0 1.238l-5.368 5.725c-.318.34-.568.508-.954.508Z" id="path-1"/></defs><g id="Final" stroke="none" stroke-width="1" fill="none" fill-rule="evenodd"><g id="v1-3-1-home-dashboard-footer" transform="translate(-1283 -608)"><path fill="#none" d="M0 0h1366v829H0z"/><g id="favorites" transform="translate(40 595)"><g id="Icons-/-Arrow-Right-/-M-Copy" transform="matrix(-1 0 0 1 1255 12)"><g id="Direct-/-Icons-/-Arrow-Right-/-M"><path id="box" d="M0 0h15v16H0z"/><mask id="mask-2" fill="#fff"><use xlink:href="#path-1"/></mask><g id="Color-/-Black" mask="url('#mask-2')" fill="#333"><path d="M0 0h169v130H0z" transform="translate(-76.875 -57)" id="#333333"/></g></g></g></g></g></g></svg>